<svg xmlns="http://www.w3.org/2000/svg" viewBox="0 0 64 64" width="64" height="64">
  <defs>
    <linearGradient id="g" x1="0" y1="0" x2="1" y2="1">
      <stop offset="0" stop-color="#6D28D9"/>
      <stop offset="1" stop-color="#8B5CF6"/>
    </linearGradient>
  </defs>
  <rect width="64" height="64" rx="14" fill="url(#g)"/>
  <!-- engranaje -->
  <g fill="#FFFFFF">
    <path d="M32 14l2.6 5.2a13.5 13.5 0 0 1 4.6 1.9l5.6-1.6 3.7 6.4-4 4.2a13.6 13.6 0 0 1 0 5l4 4.2-3.7 6.4-5.6-1.6a13.5 13.5 0 0 1-4.6 1.9L32 51.6l-2.6-5.2a13.5 13.5 0 0 1-4.6-1.9l-5.6 1.6-3.7-6.4 4-4.2a13.6 13.6 0 0 1 0-5l-4-4.2 3.7-6.4 5.6 1.6a13.5 13.5 0 0 1 4.6-1.9L32 14z" opacity="0.18"/>
  </g>
  <!-- rayo "al toque" -->
  <path d="M36.5 17 24 35h7l-3.5 12L40 29h-7l3.5-12z" fill="#FACC15"/>
</svg>
